<?xml version="1.0" encoding="iso-8859-1"?>
<!-- Generator: Adobe Illustrator 18.1.1, SVG Export Plug-In . SVG Version: 6.00 Build 0)  -->
<svg version="1.1" id="Capa_1" xmlns="http://www.w3.org/2000/svg" xmlns:xlink="http://www.w3.org/1999/xlink" x="0px" y="0px"
	 viewBox="0 0 55.515 55.515" style="enable-background:new 0 0 55.515 55.515;" xml:space="preserve">
<g>
	<g>
		<path style="fill:#FF8C00;" d="M47.436,14.721c0.887,0.154,1.314-0.968,0.771-1.929c-0.646-1.137-1.464-2.188-2.315-3.113
			c-0.748-0.812-1.367-0.495-1.705,0.557c-0.428,1.335-1.375,2.644-3.146,3.682c0,0-0.136,0.079-0.303,0.178
			s-0.949-0.442-1.746-1.207l-0.438-0.42c-0.797-0.765-1.308-1.534-1.14-1.719l0.306-0.334c0.008-0.01,0.152-0.181,0.27-0.465
			c0.111-0.276-0.107-0.496-0.373-0.379c-0.277,0.122-0.443,0.271-0.445,0.274c0,0-0.15,0.138-0.336,0.307
			c-0.184,0.169-0.476,0.162-0.652-0.016l-0.318-0.323c0,0-0.574-0.599-1.282-1.337c-0.707-0.738-1.2-1.473-1.102-1.64l0.179-0.303
			c1.227-2.076,3.16-3.174,5.596-3.174c0.508,0,0.993,0.049,1.438,0.122c0.787,0.131,0.63-0.127-0.413-0.492
			c-1.682-0.588-3.309-0.715-4.516-0.696c-1.104,0.018-1.422-0.249-0.969-0.974c0.454-0.725-0.418-1.451-1.511-1.287
			c-1.72,0.257-3.015,0.777-3.918,1.271c-0.97,0.53-2.267,0.526-3.233-0.007c-0.898-0.495-2.188-1.017-3.905-1.274
			c-1.092-0.164-1.965,0.562-1.511,1.287s0.136,0.991-0.969,0.974c-1.04-0.016-2.393,0.077-3.823,0.48
			c-1.063,0.299-1.567,0.656-1.192,0.625c0.22-0.017,0.447-0.028,0.679-0.028c2.434,0,4.369,1.098,5.595,3.174
			c0,0,0.08,0.136,0.179,0.303c0.1,0.167-0.441,0.949-1.204,1.746l-0.441,0.46c-0.764,0.797-1.534,1.298-1.719,1.119
			c-0.185-0.179-0.515-0.478-0.778-0.594c-0.265-0.114-0.48,0.106-0.368,0.381c0.112,0.276,0.406,0.615,0.575,0.8
			c0.168,0.185-0.342,0.954-1.139,1.719l-0.438,0.42c-0.797,0.765-1.579,1.306-1.746,1.207l-0.303-0.178
			c-1.451-0.852-2.349-1.884-2.861-2.964c-0.474-0.998-1.179-1.289-1.881-0.437c-0.579,0.704-1.122,1.464-1.577,2.267
			c-0.544,0.961-0.115,2.082,0.771,1.928c0.885-0.154,1.19,0.26,0.88,1.32c-0.76,2.602-1.835,7.531-0.988,12.587
			c0.183,1.088,1.221,1.617,2.039,0.963c0.818-0.653,0.955-0.588,0.882,0.515c-0.17,2.533,0.085,7.489,3.025,14.806
			c0.411,1.024,1.076,1.198,1.378,0.377c0.303-0.822,0.918-0.746,1.562,0.149c1.077,1.498,2.949,3.815,5.637,6.146
			c0.834,0.725,1.81,0.678,1.869-0.104c0.059-0.779,0.323-0.6,0.923,0.328c0.631,0.977,1.565,2.221,2.806,3.337
			c0.821,0.739,1.768,0.323,2.328-0.628c0.609-1.034,1.694-2.298,3.596-3.225c2.404-1.17,4.064-3.854,4.961-5.676
			c0.488-0.99,0.947-1.143,1.25-0.32s0.967,0.648,1.379-0.375c2.941-7.317,3.195-12.274,3.025-14.809
			c-0.074-1.103,0.062-1.167,0.881-0.513c0.817,0.655,1.856,0.126,2.039-0.963c0.848-5.057-0.229-9.986-0.988-12.588
			C46.247,14.981,46.552,14.567,47.436,14.721z M39.13,23.813c-0.595,1.155-1.191,2.214-2.008,3.002
			c-0.794,0.767-1.102,1.775-0.723,2.813c0.465,1.274,0.556,2.633,0.556,3.893c0,5.228-4.253,9.479-9.479,9.479
			c-5.228,0-9.479-4.252-9.479-9.479c0-1.297,0.086-2.616,0.515-3.846c0.364-1.043,0.045-2.038-0.768-2.786
			c-0.882-0.81-1.511-1.915-2.107-3.076c-0.928-1.808-1.184-3.828-0.721-5.69c0.473-1.894,1.629-3.398,3.257-4.233
			c0.871-0.448,1.817-0.674,2.811-0.674c1.892,0,3.746,0.835,5.162,2.244c0.781,0.779,1.693,0.779,2.477,0
			c1.415-1.409,3.27-2.244,5.161-2.244c0.994,0,1.94,0.226,2.812,0.674c1.627,0.835,2.783,2.339,3.256,4.233
			C40.311,19.985,40.055,22.005,39.13,23.813z"/>
		<path style="fill:#FF0000;" d="M13.312,12.582c0.437,0.338,1.153,0.248,1.551-0.135l0.723-0.692
			c0.398-0.383,0.419-1.039,0.232-1.558c-0.065-0.181-0.119-0.389-0.146-0.616c-0.066-0.548,0.506-1.121,1.054-1.048
			c0.222,0.029,0.423,0.084,0.6,0.151c0.517,0.194,1.164,0.185,1.547-0.213l0.692-0.722c0.383-0.398,0.473-1.115,0.12-1.54
			c-2.062-2.492-5.16-1.979-6.7-1.513c-0.528,0.16-1.157,0.737-1.351,1.256C11.086,7.428,10.488,10.398,13.312,12.582z"/>
		<path style="fill:#FF0000;" d="M35.079,6.209c-0.354,0.425-0.263,1.142,0.12,1.54l0.69,0.722c0.384,0.398,1.031,0.407,1.547,0.213
			c0.179-0.067,0.379-0.122,0.601-0.151c0.548-0.073,1.12,0.5,1.054,1.048c-0.026,0.227-0.08,0.435-0.146,0.616
			c-0.187,0.519-0.166,1.175,0.231,1.558l0.723,0.692c0.398,0.383,1.113,0.473,1.551,0.135c2.825-2.184,2.227-5.154,1.68-6.63
			c-0.193-0.519-0.822-1.096-1.351-1.256C40.239,4.23,37.141,3.717,35.079,6.209z"/>
		<path style="fill:#FF0000;" d="M35.988,15.069c-0.683-0.35-1.425-0.527-2.206-0.527c-2.227,0-4.404,1.443-5.552,3.676
			c-0.079,0.155-0.157,0.323-0.238,0.514c-0.104,0.245-0.344,0.404-0.608,0.404c-0.269,0-0.509-0.159-0.611-0.405
			c-0.079-0.187-0.156-0.354-0.238-0.512c-1.146-2.233-3.325-3.677-5.551-3.677c-0.781,0-1.523,0.178-2.206,0.527
			c-1.283,0.659-2.198,1.857-2.575,3.375c-0.386,1.55-0.169,3.242,0.613,4.764c1.164,2.269,2.097,3.456,3.959,3.647
			c0.261,0.027,0.48,0.205,0.562,0.453c0.081,0.249,0.009,0.521-0.186,0.697c-1.519,1.378-1.83,3.2-1.83,5.516
			c0,4.496,3.658,8.154,8.153,8.154c4.498,0,8.154-3.658,8.154-8.154c0-1.995-0.228-4.048-1.877-5.528
			c-0.191-0.172-0.267-0.441-0.189-0.689c0.078-0.248,0.293-0.428,0.55-0.46c1.794-0.227,2.667-1.353,3.839-3.635
			c0.781-1.522,0.999-3.215,0.613-4.764C38.184,16.926,37.27,15.728,35.988,15.069z M20.882,21.618c0-0.76,0.615-1.375,1.375-1.375
			s1.375,0.615,1.375,1.375s-0.615,1.375-1.375,1.375S20.882,22.377,20.882,21.618z M30.059,32.837
			c-0.141,0-0.279-0.019-0.412-0.056c-0.223-0.062-0.492-0.03-0.655,0.107c-0.089,0.075-0.19,0.154-0.308,0.237
			c-0.426,0.309-0.762,0.911-0.762,1.375c0,0,0,0.827,0,1.848c0,1.019,0.293,1.824,0.645,1.754c0.213-0.042,0.424-0.097,0.63-0.164
			c0.276-0.091,0.577,0.062,0.668,0.341c0.091,0.277-0.062,0.578-0.34,0.668c-0.691,0.226-1.411,0.34-2.144,0.34
			c-0.802,0-1.586-0.137-2.334-0.404c-0.274-0.1-0.418-0.402-0.319-0.68c0.098-0.274,0.402-0.418,0.678-0.318
			c0.241,0.086,0.487,0.156,0.737,0.209c0.414,0.087,0.76-0.723,0.76-1.746v-1.855c0-0.463-0.346-1.041-0.787-1.313
			c-0.087-0.054-0.164-0.104-0.232-0.153c-0.084-0.059-0.153-0.121-0.211-0.186c-0.105-0.114-0.326-0.122-0.552-0.059
			c-0.134,0.037-0.274,0.057-0.417,0.057c-0.857,0-1.554-0.697-1.554-1.555c0-0.746,0.41-1.231,1.291-1.527
			c0.082-0.034,2.255-0.916,5.745-0.018c0.961,0.252,1.428,0.758,1.428,1.545C31.614,32.14,30.916,32.837,30.059,32.837z
			 M32.091,22.825c-0.76,0-1.375-0.615-1.375-1.375s0.615-1.375,1.375-1.375c0.76,0,1.375,0.615,1.375,1.375
			S32.85,22.825,32.091,22.825z"/>
	</g>
</g>
<g>
</g>
<g>
</g>
<g>
</g>
<g>
</g>
<g>
</g>
<g>
</g>
<g>
</g>
<g>
</g>
<g>
</g>
<g>
</g>
<g>
</g>
<g>
</g>
<g>
</g>
<g>
</g>
<g>
</g>
</svg>
